<svg id="logo" xmlns="http://www.w3.org/2000/svg" width="328.43" height="94" viewBox="0 0 328.43 94">
  <path id="Differenzmenge_1" data-name="Differenzmenge 1" d="M103,94H0V0H103V94ZM60.559,54.732h3.725l13.27,24.105H95.09L80.367,53.55a19.627,19.627,0,0,0,10.771-7.323,19.019,19.019,0,0,0,3.41-11.143A18.855,18.855,0,0,0,88.688,20.87c-4.141-3.853-10.223-5.89-17.588-5.89H45.014V78.838H60.559V54.732Zm9.633-11.006H60.559V27.9h9.633c5.51,0,8.543,2.777,8.543,7.821C78.734,40.957,75.781,43.727,70.191,43.727Z" fill="#8ab1cc"/>
  <path id="Pfad_19" data-name="Pfad 19" d="M85.976,43.3c0-19.194-14.448-32.657-32.622-32.657-18.083,0-32.8,13.463-32.8,32.657s14.721,32.748,32.8,32.748S85.976,62.491,85.976,43.3Zm-49.524,0c0-11.371,6.543-18.557,16.9-18.557,10.177,0,16.811,7.186,16.811,18.557,0,11.189-6.633,18.557-16.811,18.557C42.995,61.854,36.452,54.486,36.452,43.3Zm120.947,0c0-19.194-14.448-32.657-32.622-32.657-18.083,0-32.8,13.463-32.8,32.657s14.721,32.748,32.8,32.748S157.4,62.491,157.4,43.3Zm-49.524,0c0-11.371,6.543-18.557,16.9-18.557,10.177,0,16.811,7.186,16.811,18.557,0,11.189-6.633,18.557-16.811,18.557C114.418,61.854,107.875,54.486,107.875,43.3Zm58.156,32.111H181.57V37.02l14.357,38.388h12.54l14.266-38.3v38.3h15.539V11.55H220.008l-17.72,44.21-17.9-44.21H166.032Z" transform="translate(90.157 3.43)" fill="#fff"/>
</svg>
